PathFileType	4	(X/Y/Z)	G:\Shared drives\HPL_Drive\Pi-Spi Study\20230118_AMCsubject1\Trimmed_right_flex_18001_rotated.trc
DataRate	CameraRate	NumFrames	NumMarkers	Units	OrigDataRate	OrigDataStartFrame	OrigNumFrames
200.00	200.00	       10	35	mm	200.00	151	       200
Frame#	Time	C7			Sternum			r_AMC1			r_AMC2			r_AMC3			l_AMC1			l_AMC2			l_AMC3			PX			T8			r_humerous			r_elbow_medial			r_elbow_lateral			r_forearm			r_wrist_radius			r_wrist_ulna			r_MCP_1			r_MCP_3			l_humerous			l_elbow_medial			l_elbow_lateral			l_forearm			l_wrist_radius			l_wrist_ulna			l_MCP_1			l_MCP_3			r_ASIS			r_PSIS			l_ASIS			l_PSIS			r_IC			l_IC			TS			AI			AA			
		X1	Y1	Z1	X2	Y2	Z2	X3	Y3	Z3	X4	Y4	Z4	X5	Y5	Z5	X6	Y6	Z6	X7	Y7	Z7	X8	Y8	Z8	X9	Y9	Z9	X10	Y10	Z10	X11	Y11	Z11	X12	Y12	Z12	X13	Y13	Z13	X14	Y14	Z14	X15	Y15	Z15	X16	Y16	Z16	X17	Y17	Z17	X18	Y18	Z18	X19	Y19	Z19	X20	Y20	Z20	X21	Y21	Z21	X22	Y22	Z22	X23	Y23	Z23	X24	Y24	Z24	X25	Y25	Z25	X26	Y26	Z26	X27	Y27	Z27	X28	Y28	Z28	X29	Y29	Z29	X30	Y30	Z30	X31	Y31	Z31	X32	Y32	Z32	X33	Y33	Z33	X34	Y34	Z34	X35	Y35	Z35	

151	0.75	182.7001	1372.2351	-231.6101	320.8554	1323.0161	-227.9166	168.4748	1337.5773	-93.1781	201.2337	1372.2432	-77.7991	195.9891	1393.5193	-117.0375	195.182	1316.1233	-387.6589	231.295	1310.1939	-424.2025	253.9518	1350.8387	-398.6651	388.6158	1132.2787	-216.3908	154.0736	1189.1193	-226.336	274.416	1474.0255	-73.8365	378.6636	1560.6826	-5.7164	322.1427	1576.5999	15.1521	347.526	1740.5522	34.6469	346.9855	1814.9387	20.2327	391.9913	1802.2584	41.0418	355.8167	1900.1168	25.6171	401.7179	1891.3008	38.9663	318.4591	1122.4179	-424.3837	266.9181	988.4997	-378.0068	261.7306	983.3192	-431.5888	308.6386	838.2485	-470.224	357.9246	771.0481	-478.6371	316.9136	763.1294	-462.6987	367.8942	693.5678	-493.9617	326.7704	687.1227	-471.1947	350.4045	910.1643	-73.8049	164.9509	930.2699	-161.222	358.979	891.9799	-330.886	169.8445	923.1946	-262.9543	269.537	972.0673	-48.118	273.3946	939.4694	-371.507	107.4658	1285.6925	-123.7141	143.2593	1208.7256	-66.9061	159.518	1374.1996	-21.6234
152	0.755	182.751	1372.2321	-231.5656	320.907	1323.0094	-227.9044	168.4886	1337.6051	-93.1641	201.2913	1372.2279	-77.7753	196.0679	1393.5281	-117.0177	195.2377	1316.1526	-387.6012	231.3237	1310.2161	-424.1762	254.0158	1350.8828	-398.6341	388.6017	1132.267	-216.384	154.0944	1189.1384	-226.3197	274.4424	1474.0045	-73.8035	378.6436	1560.7709	-5.663	322.1349	1576.6169	15.2045	347.5056	1740.5283	34.7263	346.8661	1814.7658	20.4246	391.949	1802.2469	41.1216	356.0911	1899.9683	25.7306	401.6207	1891.3203	39.0665	318.4952	1122.3937	-424.4038	266.9299	988.5285	-378.0037	261.676	983.204	-431.6116	308.5966	838.2787	-470.2605	357.9224	771.0085	-478.6325	316.8982	763.1478	-462.7432	367.7806	693.4265	-493.3401	326.7605	687.1359	-471.2398	350.3848	910.1472	-73.7419	164.933	930.2763	-161.2153	358.9898	891.9976	-330.8704	169.8478	923.2188	-262.9649	269.5213	972.0158	-48.1285	273.3902	939.4874	-371.5097	107.5023	1285.7126	-123.6954	143.1808	1208.7846	-66.6252	159.5823	1374.196	-21.6424
153	0.76	182.7879	1372.2494	-231.5337	320.9621	1323.0327	-227.8889	168.5193	1337.5897	-93.1377	201.3498	1372.2474	-77.7274	196.1261	1393.5377	-116.9697	195.3007	1316.217	-387.5656	231.3537	1310.2451	-424.1533	254.052	1350.9025	-398.5999	388.6259	1132.2357	-216.3366	154.1246	1189.1433	-226.2976	274.4513	1474.0258	-73.7548	378.664	1560.7565	-5.5592	322.173	1576.5911	15.2501	347.4568	1740.5592	34.7917	346.7534	1815.023	20.4589	391.9454	1802.2595	41.1619	355.6842	1900.0869	25.8532	401.5292	1891.3356	39.1799	318.5417	1122.3814	-424.4016	266.9286	988.5433	-378.0211	261.6909	983.3554	-431.631	308.594	838.3071	-470.2743	357.8696	771.0493	-478.6815	316.8647	763.1862	-462.7678	367.718	693.4432	-493.3632	326.6962	687.1518	-471.2779	350.6083	910.0702	-73.629	164.9376	930.2717	-161.1955	358.9886	892.0043	-330.8775	169.8538	923.207	-262.9338	269.5643	972.0067	-48.1589	273.3069	939.5729	-371.5594	107.5426	1285.7559	-123.6593	143.1855	1208.7499	-66.6034	159.6286	1374.1957	-21.6132
154	0.765	182.849	1372.2643	-231.4973	321.0065	1323.0094	-227.8522	168.6101	1337.6216	-93.0915	201.3823	1372.2446	-77.6569	196.1866	1393.54	-116.9289	195.3221	1316.2435	-387.5468	231.387	1310.2755	-424.1455	254.1025	1350.9217	-398.5654	388.6769	1132.2556	-216.3711	154.1317	1189.1632	-226.2782	274.4641	1474.0267	-73.7036	378.6779	1560.7974	-5.5987	322.1774	1576.5844	15.2816	347.4283	1740.583	34.8543	346.722	1815.0383	20.5286	391.8864	1802.2598	41.2494	355.9817	1899.9793	25.93	401.4722	1891.3734	39.2662	318.4907	1122.4473	-424.3992	266.894	988.5474	-378.0304	261.6549	983.2422	-431.6344	308.5679	838.3026	-470.2821	357.8174	771.0748	-478.7261	316.7994	763.1822	-462.8032	367.7018	693.441	-493.3879	326.6744	687.1661	-471.2797	350.6256	910.0529	-73.635	164.9355	930.2684	-161.1922	358.9753	891.9928	-330.868	169.8372	923.2101	-262.9278	269.5506	971.9567	-48.1124	273.4022	939.5035	-371.4857	107.6004	1285.7527	-123.6626	143.2306	1208.8505	-66.5615	159.6734	1374.215	-21.6007
155	0.77	182.8748	1372.2848	-231.4689	321.0467	1323.0342	-227.8401	168.6347	1337.6432	-93.0788	201.4393	1372.2494	-77.6609	196.2291	1393.5561	-116.9023	195.3883	1316.2725	-387.509	231.4225	1310.3009	-424.1155	254.1498	1350.9456	-398.5447	388.668	1132.2611	-216.3604	154.1416	1189.1735	-226.245	274.4776	1474.0344	-73.6715	379.3644	1560.8472	-5.093	322.1968	1576.5666	15.3486	347.4228	1740.5236	34.8729	346.64	1815.0546	20.6382	391.8836	1802.2694	41.2832	355.9185	1900.0166	26.0348	401.3965	1891.4006	39.3512	318.5134	1122.411	-424.3994	266.928	988.5787	-378.0186	261.6418	983.2643	-431.6301	308.5082	838.3296	-470.3192	357.8196	771.0793	-478.7347	316.7767	763.1729	-462.8298	367.6704	693.6677	-494.0555	326.6083	687.2071	-471.3437	350.5565	910.0361	-73.5615	164.9147	930.2794	-161.1796	358.9611	892.0111	-330.8762	169.8405	923.2324	-262.9203	269.5652	971.9748	-48.0966	273.3836	939.4739	-371.4484	107.6154	1285.7871	-123.6498	143.2962	1208.802	-66.6749	159.7071	1374.2003	-21.5704
156	0.775	182.922	1372.2886	-231.4403	321.0785	1323.0406	-227.8225	168.6494	1337.6196	-93.0668	201.4677	1372.2407	-77.6131	196.287	1393.5904	-116.855	195.43	1316.3157	-387.4848	231.286	1310.2101	-423.825	254.186	1350.9589	-398.5104	388.7166	1132.2634	-216.3532	154.1693	1189.1975	-226.2118	274.4705	1474.0288	-73.6063	378.6885	1560.8276	-5.5398	322.1867	1576.5665	15.3979	347.3981	1740.6224	35.0178	346.5832	1815.0625	20.7384	391.793	1802.3168	41.3583	355.812	1900.0496	26.155	401.3236	1891.4022	39.4577	318.5453	1122.3807	-424.4324	266.9089	988.5795	-378.0289	261.6559	983.4066	-431.6311	308.4816	838.3618	-470.3323	357.776	771.0451	-478.7769	316.756	763.1908	-462.8279	367.5989	693.7184	-494.1098	326.5685	687.2115	-471.3471	350.6015	910.0429	-73.5611	164.9404	930.2639	-161.1866	358.9753	892.0063	-330.8619	169.8472	923.2735	-262.8854	269.4588	972.023	-48.0946	273.3374	939.5162	-371.4692	107.6507	1285.781	-123.6377	143.4543	1208.9194	-66.7636	159.7124	1374.2556	-21.5117
157	0.78	182.9513	1372.306	-231.4078	321.1235	1323.0476	-227.7712	168.6719	1337.6366	-93.052	201.4972	1372.266	-77.5968	196.3127	1393.5984	-116.7994	195.4507	1316.324	-387.4788	231.2882	1310.2365	-423.8065	254.2106	1350.9679	-398.5008	388.6845	1132.236	-216.3618	154.1823	1189.2041	-226.1925	274.4233	1474.0242	-73.5364	378.7557	1560.7688	-5.5267	322.1953	1576.5558	15.4605	347.3854	1740.564	35.0302	346.5277	1815.051	20.8339	391.791	1802.3419	41.4214	355.7159	1900.1124	26.2924	401.2371	1891.4575	39.5323	318.4742	1122.4929	-424.4323	266.8622	988.6009	-378.0539	261.64	983.4358	-431.6433	308.4539	838.3751	-470.3467	357.6667	771.1828	-478.8512	316.6862	763.2147	-462.868	367.575	693.7143	-494.1627	326.5324	687.2036	-471.376	350.5969	910.0438	-73.5387	164.9356	930.2624	-161.1701	359.0025	892.0075	-330.8546	169.8106	923.2131	-262.8871	269.5006	971.9854	-48.0891	273.3122	939.5599	-371.4912	107.6722	1285.8035	-123.6214	143.3846	1208.908	-66.6309	159.7691	1374.2297	-21.4758
158	0.785	182.9843	1372.3131	-231.383	321.1247	1323.0635	-227.7637	168.7006	1337.6685	-93.0433	201.5244	1372.2474	-77.5823	196.3509	1393.605	-116.7854	195.4718	1316.34	-387.4525	231.3637	1310.2408	-423.7647	254.2459	1350.9915	-398.4692	388.7587	1132.2721	-216.3421	154.1923	1189.2103	-226.1629	274.4142	1474.053	-73.4902	379.3514	1560.9811	-4.999	322.2221	1576.5636	15.5076	347.3534	1740.5901	35.1771	346.4639	1815.0692	20.9071	391.7319	1802.3472	41.4653	355.6421	1900.0649	26.3789	401.1529	1891.5127	39.6315	318.4838	1122.4835	-424.4394	266.8856	988.5928	-378.0224	261.6223	983.4393	-431.6535	308.4074	838.3835	-470.3675	357.6336	771.1093	-478.8512	316.6423	763.2407	-462.8785	367.4744	693.505	-493.5385	326.4624	687.2153	-471.418	350.5984	910.0297	-73.5335	164.9331	930.27	-161.1641	358.994	892.0105	-330.8589	169.8289	923.2424	-262.8795	269.502	972.0122	-48.0859	273.2789	939.5727	-371.4775	107.7098	1285.8008	-123.6081	143.3826	1208.5328	-67.0024	159.7682	1374.2379	-21.4682
159	0.79	183.0192	1372.3065	-231.3589	321.1521	1323.0774	-227.7529	168.7127	1337.6393	-93.0118	201.5454	1372.2177	-77.533	196.3761	1393.6073	-116.7662	195.5198	1316.3568	-387.4199	231.3741	1310.2731	-423.7587	254.2705	1350.9956	-398.4548	388.7469	1132.2856	-216.3697	154.2003	1189.2311	-226.1611	274.3781	1474.0483	-73.4329	379.3482	1560.9987	-4.9733	322.2482	1576.5609	15.539	347.3547	1740.7201	35.18	346.4042	1815.0786	21.0058	391.6659	1802.3655	41.5197	355.5502	1900.0846	26.446	401.0986	1891.5297	39.6836	318.4929	1122.4625	-424.4809	266.8621	988.5955	-378.0318	261.6046	983.4488	-431.6451	308.3605	838.3944	-470.3818	357.5734	771.1343	-478.8605	316.594	763.2111	-462.9134	367.4677	693.6954	-494.2475	326.4049	687.21	-471.4424	350.5917	910.0117	-73.505	164.925	930.2718	-161.1452	358.9675	892.0065	-330.8253	169.8144	923.2248	-262.8637	269.5236	971.9662	-48.0984	273.1978	939.6465	-371.5606	107.7395	1285.7943	-123.5696	143.427	1208.5297	-67.0072	159.7783	1374.2404	-21.4363
160	0.795	183.0487	1372.3228	-231.3371	321.1734	1323.0832	-227.7253	168.7327	1337.6223	-92.9885	201.5584	1372.2256	-77.4871	196.3987	1393.6218	-116.7305	195.5526	1316.3925	-387.3795	231.3952	1310.2822	-423.737	254.3089	1351.0145	-398.43	388.7586	1132.2737	-216.3338	154.2241	1189.2382	-226.1307	274.3532	1474.0698	-73.353	378.6424	1560.9608	-5.43	322.2269	1576.564	15.5942	347.3161	1740.723	35.2572	346.3401	1815.0876	21.0978	391.6142	1802.4207	41.6034	355.5398	1900.2164	26.5484	401.0641	1891.5769	39.7677	318.4339	1122.5728	-424.4658	266.8426	988.6176	-378.0298	261.5819	983.4902	-431.6095	308.3254	838.4257	-470.3968	357.4938	771.1862	-478.9383	316.3215	763.1048	-463.0053	367.2756	693.8541	-494.3143	326.3514	687.2538	-471.4543	350.5895	909.9961	-73.4854	164.9352	930.2866	-161.1455	358.9504	892.0153	-330.826	169.8031	923.2313	-262.8629	269.4642	972.0519	-48.0518	273.212	939.6358	-371.4869	107.7641	1285.8054	-123.5591	143.4117	1208.5173	-66.934	159.8111	1374.2332	-21.4098
